<svg xmlns="http://www.w3.org/2000/svg" width="50.487" height="98.272" viewBox="0 0 50.487 98.272">
  <g id="Business" transform="translate(-1280.499 -2612.757)">
    <path id="Path_5645" data-name="Path 5645" d="M12018.345-15295.715a20.667,20.667,0,0,1-7.091-12.59,20.972,20.972,0,0,1,3.514-15.287,20.6,20.6,0,0,1,13.112-8.5l1-.189.3-.054v-3.8h-3.522c-.154,0-.309,0-.463,0s-.321,0-.479,0c-.282,0-.51-.008-.722-.02a4.7,4.7,0,0,1-3.874-2.355,4.713,4.713,0,0,1-.02-4.565,3.03,3.03,0,0,0,.395-1.306c.022-6.592.019-13.293.015-19.777V-15367c0-.162-.012-.32-.026-.521a.357.357,0,0,0-.066,0c-.382-.022-.745-.042-1.112-.054-.262-.008-.532-.012-.791-.012-.472,0-.954-.008-1.437-.046a3.518,3.518,0,0,1-3.121-2.287,3.579,3.579,0,0,1,.553-3.823c1.115-1.363,2.259-2.738,3.367-4.07.332-.4.668-.8,1-1.205l.02-.023c2.236-2.692,4.554-5.477,6.832-8.211a4.226,4.226,0,0,1,3.194-1.742,4.116,4.116,0,0,1,3.1,1.665c2.784,3.294,5.588,6.674,8.3,9.938q1.441,1.731,2.881,3.464a3.739,3.739,0,0,1,.634,4.129,3.618,3.618,0,0,1-3.43,2.2c-.395.012-.819.016-1.337.016-.348,0-.7,0-1.05,0-.2,0-.4,0-.6,0v3.746a4.9,4.9,0,0,1,3.12-1.22,4.849,4.849,0,0,1,3.734,1.935c3.248,3.878,6.535,7.832,9.714,11.656q1.929,2.317,3.854,4.634c.247.294.49.588.733.881.571.684,1.163,1.395,1.742,2.094a4.561,4.561,0,0,1,.7,5.066,4.469,4.469,0,0,1-4.356,2.677h-4.913c-.016.286-.027.533-.027.78v1.642c0,4.854-.008,9.871.008,14.812a6.056,6.056,0,0,0,.229,1.6,20.6,20.6,0,0,1,.552,8.836,20.819,20.819,0,0,1-2.993,7.983,20.934,20.934,0,0,1-5.921,6.145,20.636,20.636,0,0,1-8.226,3.307,21.1,21.1,0,0,1-3.511.3A20.905,20.905,0,0,1,12018.345-15295.715Zm-3.809-16.29a17.249,17.249,0,0,0,4.929,12.455,17.021,17.021,0,0,0,12.119,5.249h.189a17.185,17.185,0,0,0,17.367-17.074,17.2,17.2,0,0,0-4.9-12.332,17.309,17.309,0,0,0-12.293-5.218h-.186A17.341,17.341,0,0,0,12014.536-15312Zm16.1-27.73c1.533.016,2.2.684,2.229,2.236.008.46.008.923,0,1.371v3.631a22.168,22.168,0,0,1,8.8,2.456,21.225,21.225,0,0,1,6.512,5.411v-3.592c0-2.989,0-6.083,0-9.127a2.566,2.566,0,0,1,.54-1.854,2.621,2.621,0,0,1,1.866-.537c1.046-.008,2.089-.012,3.1-.012.966,0,1.936,0,2.87.008h.023c.811,0,1.085-.247,1.247-.617.2-.444.093-.85-.363-1.395-2.812-3.368-5.666-6.794-8.423-10.107-2.426-2.912-4.937-5.925-7.4-8.883-.437-.521-.811-.788-1.12-.788s-.664.255-1.089.757c-.958,1.136-1.923,2.3-2.857,3.422l-1.031,1.24q-4.821,5.788-9.637,11.574l-2.155,2.584c-.038.051-.077.1-.115.144l-.17.2a1.126,1.126,0,0,0-.221,1.31c.132.274.359.556,1.094.556l.935,0c.765,0,1.533,0,2.3,0C12028.749-15339.751,12029.727-15339.747,12030.634-15339.735Zm-9.13-31.418a2.738,2.738,0,0,1,2.023.536,2.76,2.76,0,0,1,.537,2.028q.006,6.992,0,13.988v6.678c.409-.49.814-.978,1.22-1.468,2.7-3.24,5.488-6.589,8.207-9.906a1.7,1.7,0,0,0,.29-.988c.027-1.877.023-3.789.023-5.639,0-.97,0-1.978,0-2.967,0-1.634.622-2.244,2.278-2.259.476-.008.95,0,1.429,0h.827c.688,0,1.213-.008,1.7-.027a1,1,0,0,0,.5-.2,1.5,1.5,0,0,0-.224-.413c-3.321-4.021-6.9-8.323-10.93-13.15-.313-.375-.437-.429-.464-.437-.031.008-.162.062-.514.479-.571.673-1.144,1.364-1.7,2.036-.32.386-.653.787-.985,1.186q-.979,1.176-1.962,2.352c-2.02,2.422-4.109,4.929-6.145,7.4a1.482,1.482,0,0,0-.286.595,1.87,1.87,0,0,0,.657.154c.433.02.907.027,1.5.027.3,0,.61,0,.912,0s.613,0,.923,0Z" transform="translate(-10730.5 18001.758)"/>
    <path id="Path_5644" data-name="Path 5644" d="M165.421,295.186c0,.7.02,1.395,0,2.089-.03.867-.263,1.08-1.135,1.122-2.253.108-2.283.08-2.313-2.149,0-.255-.023-.51-.038-.817-.917-.265-1.823-.519-2.724-.792a4.756,4.756,0,0,1-.706-.308c-1.212-.6-1.3-.8-.865-2.05.132-.382.252-.771.414-1.14.329-.748.647-.874,1.379-.471a7.03,7.03,0,0,0,3.991,1.043,3.926,3.926,0,0,0,1.468-.389,1.974,1.974,0,0,0,.447-3.315,10.927,10.927,0,0,0-2.152-1.3,32.4,32.4,0,0,1-3.208-1.689,5.3,5.3,0,0,1,.776-9.284c.425-.209.869-.379,1.424-.62,0-.673,0-1.365,0-2.057,0-.662.274-1.032.988-1.027,2.387.016,2.522-.258,2.458,2.226,0,.18.024.362.041.6.878.27,1.764.485,2.605.816,1.346.53,1.424.778.91,2.16-.051.138-.111.272-.163.41-.562,1.483-.609,1.507-2.04.854a6.425,6.425,0,0,0-3.219-.57,1.96,1.96,0,0,0-1.917,1.38,1.767,1.767,0,0,0,1.027,2.1c.758.442,1.6.738,2.371,1.162a16.322,16.322,0,0,1,3,1.812,5.809,5.809,0,0,1-1.631,9.732C166.239,294.866,165.864,295.008,165.421,295.186Z" transform="translate(1137.586 2404.959)" fill="#2596be"/>
  </g>
</svg>
