<svg xmlns="http://www.w3.org/2000/svg" width="108.146" height="106.328" viewBox="0 0 108.146 106.328">
  <g id="Consulting_Expertise" data-name="Consulting Expertise" transform="translate(12189.498 -17995.826)">
    <path id="Subtraction_6" data-name="Subtraction 6" d="M35.313,102.724c-1.206,0-2.1-.22-2.555-1.3a1.908,1.908,0,0,1,.015-1.576,1.878,1.878,0,0,1,1.19-1,7.5,7.5,0,0,1,1.813-.221,11.926,11.926,0,0,0,4.89-1.08,4.657,4.657,0,0,0,2.955-3.876c.224-2.3.462-4.773.689-7.225a2.078,2.078,0,0,0-.025-.431c-.011-.092-.024-.2-.034-.318H23.741c-7.458,0-13.175,0-18.538.013H5.188a4.71,4.71,0,0,1-4.72-2.725,5.433,5.433,0,0,1-.445-2.226C0,75.44,0,70.026,0,64.79Q0,62.6,0,60.4q0-6.491,0-12.982c0-9.945,0-20.228,0-30.4A4.527,4.527,0,0,1,3.09,12.451a7.624,7.624,0,0,1,2.433-.359c4.563-.015,9-.017,12.739-.017h35.1v4.048H5.691c-.181,0-.327,0-.461.008-.852.033-1.022.191-1.07.994-.008.149-.007.3-.006.448,0,.057,0,.114,0,.171V80.061c0,.065,0,.13,0,.2,0,.2,0,.4.013.6.049.582.334.865.872.865H5.1c.083,0,.173,0,.276,0l.276,0,.276,0h95.691c.114,0,.208,0,.294,0,.8-.023,1.024-.228,1.07-1,.01-.169.008-.34.006-.506,0-.068,0-.135,0-.2V17.872c0-1.748,0-1.748-1.863-1.748h-7.23V12.073h7.634a5.671,5.671,0,0,1,4.068,1.293,4.542,4.542,0,0,1,1.541,3.3c0,.133,0,.268,0,.4v.133q0,6.194,0,12.387V30.4c0,16.465,0,33.49.008,50.263a5.431,5.431,0,0,1-.627,2.705,4.431,4.431,0,0,1-2.085,1.839,6.551,6.551,0,0,1-2.579.475c-5.453.02-10.762.022-15.235.022H62.876c-.006.131-.015.245-.023.347a2.88,2.88,0,0,0-.013.483c.107,1.154.219,2.328.328,3.463v.006c.109,1.143.222,2.326.33,3.492.213,2.284,1.616,3.8,4.172,4.507a20.378,20.378,0,0,0,3.395.53c.341.034.694.069,1.04.108a2.685,2.685,0,0,1,2.031.864,1.923,1.923,0,0,1,.333,1.764,1.951,1.951,0,0,1-1.3,1.276,4.638,4.638,0,0,1-1.356.168c-7.188,0-14.487.005-21.546.006l-14.937,0ZM49.4,85.7c-.607,0-.852.217-.9.8-.086.964-.183,1.942-.277,2.888-.136,1.361-.276,2.768-.383,4.155a8.991,8.991,0,0,1-1.488,4.4c-.087.131-.167.265-.268.435l-.139.232H61.3A9.818,9.818,0,0,1,59.24,92.75c-.07-1.227-.2-2.471-.334-3.674-.088-.816-.179-1.659-.249-2.488-.056-.661-.317-.895-1-.895h-.039c-1.281.016-2.6.024-4.031.024-1.278,0-2.639-.006-4.16-.019ZM84.773,13.926l-.393,0-.4,0H69.8c-2.41,0-5,0-7.611,0a3.562,3.562,0,0,1-.784-.063,1.278,1.278,0,0,1-1-1.223,1.508,1.508,0,0,1,.075-.557h7.04l19.261,0a1.492,1.492,0,0,1,.076.553,1.274,1.274,0,0,1-1.173,1.263C85.353,13.922,85.023,13.926,84.773,13.926Z" transform="translate(-12189 17998.93)" stroke="rgba(0,0,0,0)" stroke-width="1"/>
    <g id="Group_9822" data-name="Group 9822">
      <path id="Path_5630" data-name="Path 5630" d="M7.326,37.694a1.9,1.9,0,0,1-.966-1.841c.009-1,.007-2.021.005-3.008q0-.594,0-1.188v-.3c-.2-.007-.4-.013-.595-.018a18.324,18.324,0,0,1-2.013-.128A4.339,4.339,0,0,1,1.1,29.767,4.3,4.3,0,0,1,.014,26.951C0,18.787,0,11.4.014,4.374A4.451,4.451,0,0,1,4.577.008C5.382,0,6.244,0,7.289,0L9.4,0l2.114,0h16.9l13.59,0A4.507,4.507,0,0,1,46.642,3.6a5.459,5.459,0,0,1,.092,1.214v.083c0,2.151,0,4.339-.007,6.455-.009,4.923-.018,10.014.04,15.02a4.787,4.787,0,0,1-4.978,4.973h-.041c-3.032-.02-6.3-.03-9.981-.03-4.053,0-8.173.012-12.158.022l-1.836.005a1.642,1.642,0,0,0-.9.312c-1.855,1.4-3.724,2.839-5.533,4.233L9.626,37.2l-.07.053c-.04.03-.077.058-.11.085a2.053,2.053,0,0,1-1.326.554A1.75,1.75,0,0,1,7.326,37.694Zm.347-9.911c1.569,0,2.181.614,2.183,2.18,0,.747,0,1.494,0,2.274v.352l1.229-.941c1.3-1,2.653-2.027,3.955-3.069a3.526,3.526,0,0,1,2.352-.81h.014c4.961.013,9.864.014,13.581.014l10.889,0c1.105,0,1.359-.252,1.36-1.345q0-10.773,0-21.546c0-1.1-.288-1.389-1.4-1.389H4.89C3.79,3.5,3.5,3.79,3.5,4.9c0,7.066,0,14.371,0,21.606,0,.985.28,1.27,1.247,1.274q.849,0,1.7,0H7.673Z" transform="translate(-12138.742 17995.826)" fill="#2596be"/>
      <path id="Path_5627" data-name="Path 5627" d="M120.665,683.956q-5.722,0-11.444,0a3.548,3.548,0,0,1-.785-.063,1.345,1.345,0,0,1-.09-2.573,2.706,2.706,0,0,1,.777-.1q11.536-.008,23.071,0a2.78,2.78,0,0,1,.662.063,1.291,1.291,0,0,1,1.032,1.38,1.276,1.276,0,0,1-1.172,1.263c-.563.056-1.134.031-1.7.031Q125.839,683.958,120.665,683.956Z" transform="translate(-12236.034 17328.895)" fill="#2596be"/>
      <path id="Path_5628" data-name="Path 5628" d="M120.72,661.807q5.751,0,11.5,0a2.632,2.632,0,0,1,.836.095,1.293,1.293,0,0,1,.821,1.41,1.316,1.316,0,0,1-1.085,1.158,3.094,3.094,0,0,1-.546.028q-11.594,0-23.188,0a2.989,2.989,0,0,1-.546-.029,1.325,1.325,0,0,1-1.082-1.465,1.288,1.288,0,0,1,1.236-1.194c.2-.014.406-.007.608-.007Z" transform="translate(-12236.029 17342.902)"/>
      <path id="Path_5629" data-name="Path 5629" d="M115.146,700.821q3.073,0,6.146,0a1.345,1.345,0,0,1,1.519,1.359,1.33,1.33,0,0,1-1.479,1.34q-6.207.01-12.414,0a1.357,1.357,0,1,1,.021-2.7Q112.043,700.816,115.146,700.821Z" transform="translate(-12236.034 17314.746)"/>
    </g>
    <path id="Path_5631" data-name="Path 5631" d="M36.037,38.51a2.384,2.384,0,0,1-.123-.819A16.163,16.163,0,0,0,6.375,28.634,16.323,16.323,0,0,0,3.56,37.582a2.491,2.491,0,0,1-.489,1.4,1.519,1.519,0,0,1-1.221.6,1.819,1.819,0,0,1-.735-.162A1.778,1.778,0,0,1,0,37.689a19.111,19.111,0,0,1,.873-5.709,20.242,20.242,0,0,1,4.091-7.335,20.628,20.628,0,0,1,6.775-4.961c.347-.162.7-.3,1.046-.429l.012,0,.2-.074a10.982,10.982,0,0,1-3.938-7.213,10.7,10.7,0,0,1,2.587-8.253A10.972,10.972,0,0,1,15.385.935,10.52,10.52,0,0,1,19.73,0a10.774,10.774,0,0,1,7.33,2.921,10.647,10.647,0,0,1,2.748,3.957,10.706,10.706,0,0,1,.652,4.773,10.52,10.52,0,0,1-3.973,7.516l.226.1c.71.3,1.444.607,2.135.977A19.328,19.328,0,0,1,38.879,33.08a23.786,23.786,0,0,1,.511,3.757c.025.3.05.615.078.92A1.7,1.7,0,0,1,38.022,39.6a2.025,2.025,0,0,1-.358.033A1.7,1.7,0,0,1,36.037,38.51ZM19.742,3.587a7.2,7.2,0,1,0,5.1,2.12,7.153,7.153,0,0,0-5.1-2.12v-.5h0Z" transform="translate(-12177.719 18042.797)"/>
  </g>
</svg>
