<svg xmlns="http://www.w3.org/2000/svg" width="170.004" height="231.002" viewBox="0 0 85.002 115.501">
  <g id="Proven_Success" data-name="Proven Success" transform="translate(-775.802 -2604.155)">
    <path id="Path_5642" data-name="Path 5642" d="M12021.274-15347.572a1.767,1.767,0,0,1-1.116-.409,1.84,1.84,0,0,1-.638-2.136l.617-2.068.646-2.161.023-.077.157-.526c.482-1.607.98-3.271,1.465-4.9.159-.547.309-1.1.448-1.618.037-.136.073-.271.11-.41l.018-.066.1-.354.089-.324-.267-.205-1.765-1.349-2.825-2.158-4.351-3.325c-.078-.06-.155-.115-.222-.161l-.076-.055-.029-.021-.044-.032-.027-.021c-.057-.043-.111-.083-.165-.127-1.491-1.147-1.589-1.888-1.275-2.646.395-.951,1.128-1.344,2.53-1.355,2.411-.021,4.859-.083,7.228-.143l.786-.02c1.089-.03,1.84-.05,2.511-.065.3-.007.593-.031.927-.06l.065-.006c.126-.009.255-.019.392-.03l.161-.013.324-.023.112-.309q.22-.623.441-1.245t.442-1.246c.849-2.385,1.532-4.308,2.151-6.052.153-.431.306-.885.429-1.25l.016-.048c.154-.462.366-1.094.583-1.68.425-1.165,1.028-1.73,1.846-1.73.047,0,.093,0,.141.007h.008a2.121,2.121,0,0,1,1.961,1.66c.923,2.728,1.989,5.834,3.355,9.775.14.4.3.795.478,1.21l.018.041.042.1c.093.221.165.4.235.572l.124.3.328.012.556.012.461.01c.742.017,1.511.033,2.263.052l.747.018.312.007c2.312.054,4.7.108,7.044.142h.174c1.5.02,2.437.093,2.865,1.31.472,1.341-.295,2.034-1.614,3.017-2.19,1.635-4.313,3.258-6.477,4.916l-1.312,1c-.454.348-.9.688-1.357,1.035l-.273.209.1.332c.363,1.218.728,2.426,1.067,3.551l.254.844.293.985c.137.456.348,1.155.572,1.889l.121.4c.4,1.333.821,2.711,1.207,4.08.468,1.659-.074,2.253-.6,2.584a1.97,1.97,0,0,1-1.081.344,2.8,2.8,0,0,1-1.6-.622c-2.01-1.425-4.052-2.842-6.027-4.212l-.04-.028c-.371-.254-.747-.516-1.11-.769l-.066-.046-.26-.181-.263-.183c-.5-.345-.979-.672-1.507-1.027l-.595-.4-.048-.032-.095-.065-.286-.193-2.4,1.668-2.49,1.724-2.182,1.511-2.747,1.9c-.1.067-.169.116-.235.166l-.079.056-.008,0a6.681,6.681,0,0,1-.655.423A2.368,2.368,0,0,1,12021.274-15347.572Zm.022-22.86-.277,1.187.251.2c.349.271.7.545,1.069.838l.1.076c.691.543,1.477,1.157,2.246,1.735l.247.182.015.011c1.473,1.1,2.211,1.657,2.407,2.291s-.1,1.626-.7,3.445c-.3.918-.562,1.863-.812,2.778l-.01.036-.044.163c-.061.215-.121.433-.181.651l0,.007c-.062.228-.126.454-.188.678l-.3,1.055.992-.463a29.654,29.654,0,0,0,4.491-2.732l.008-.006c1.3-.911,2.012-1.387,2.6-1.387s1.285.467,2.673,1.437c.935.656,1.861,1.3,2.89,2.011l.068.048c.166.113.332.229.5.344l.076.052q.281.2.564.39l.01.007.293.2.861-.637-.1-.336c-.043-.139-.085-.278-.127-.418l-.1-.341-.138-.452-.095-.312c-.19-.619-.383-1.25-.576-1.885l-.04-.132-.227-.742q-.127-.416-.254-.829a4.939,4.939,0,0,1-.425-2.618c.166-.523.7-1,1.838-1.854,1.011-.77,2.029-1.553,2.9-2.228l.032-.024.506-.39.153-.118.665-.512.278-.213-.332-1.054-.355-.008h-.03l-.2-.006c-.477-.013-.971-.025-1.453-.036-1.257-.031-2.74-.068-4.21-.1-2.054-.047-2.334-.245-2.993-2.125l-.277-.789c-.67-1.911-1.245-3.551-1.866-5.316l-.425-1.209-.506,1.174,0,.01c-.03.067-.057.129-.08.185l-.045.1c-.023.054-.044.1-.064.144l-.042.1c-.062.139-.1.222-.132.317-.086.249-.175.5-.262.749l-.043.12-.062.174c-.39,1.093-.8,2.264-1.2,3.418-.521,1.529-.792,2.278-1.24,2.6s-1.265.344-2.908.358c-.592,0-1.2.008-1.923.008h-1.541c-.514,0-1.036,0-1.541,0Z" transform="translate(-11212.664 17992.156)" fill="#2596be"/>
    <g id="Group_9824" data-name="Group 9824" transform="translate(5.989 2.693)">
      <path id="Path_5633" data-name="Path 5633" d="M259.7,200.719a8.284,8.284,0,0,1-1.646-1.514,1.646,1.646,0,0,1,.478-2.319c2.45-1.529,4.962-2.963,7.5-4.339a1.915,1.915,0,0,1,2.393.8,2.024,2.024,0,0,1-.28,2.645,7.19,7.19,0,0,1-1.379.937c-1.755,1.02-3.514,2.033-5.287,3.022C261,200.219,260.468,200.391,259.7,200.719Z" transform="translate(522.288 2439.637)"/>
      <path id="Path_5634" data-name="Path 5634" d="M268.839,138.905c-.043,1.727-1.607,2.813-2.941,2.118-2.422-1.26-4.783-2.65-7.109-4.082a1.988,1.988,0,0,1-.579-2.817,2.093,2.093,0,0,1,2.941-.615c2.173,1.194,4.308,2.459,6.455,3.7a1.647,1.647,0,0,1,.6.457A13.809,13.809,0,0,1,268.839,138.905Z" transform="translate(522.237 2470.979)"/>
      <path id="Path_5635" data-name="Path 5635" d="M383.278,192.377a10,10,0,0,1,1.238.522c2.03,1.149,4.055,2.308,6.06,3.5,1.3.772,1.69,1.97,1.062,3.054s-1.858,1.347-3.171.609c-2.123-1.191-4.238-2.4-6.326-3.649a2.1,2.1,0,0,1-1.013-2.6A2.181,2.181,0,0,1,383.278,192.377Z" transform="translate(457.056 2439.635)"/>
      <path id="Path_5636" data-name="Path 5636" d="M389.618,133.2a2.043,2.043,0,0,1,2.146,1.274,1.913,1.913,0,0,1-.45,2.248,8.581,8.581,0,0,1-1.511,1.018c-1.8,1.046-3.607,2.093-5.433,3.1a2.118,2.118,0,0,1-3.07-.613,2.151,2.151,0,0,1,.922-3c2.135-1.284,4.307-2.507,6.478-3.729A3.808,3.808,0,0,1,389.618,133.2Z" transform="translate(457.05 2470.963)"/>
      <path id="Path_5637" data-name="Path 5637" d="M251.486,171.042c-1.267,0-2.535.041-3.8-.011a2.091,2.091,0,1,1-.056-4.182q3.873-.1,7.751,0a2.048,2.048,0,0,1,2.1,2.14,2.1,2.1,0,0,1-2.19,2.051c-.1.008-.2.006-.3.006h-3.5Z" transform="translate(528.761 2453.174)" fill="#2596be"/>
      <path id="Path_5638" data-name="Path 5638" d="M397.155,171.044c-1.267,0-2.536.04-3.8-.012a2.091,2.091,0,1,1-.057-4.179q3.874-.092,7.752,0a2.092,2.092,0,1,1-.094,4.181C399.691,171.084,398.422,171.045,397.155,171.044Z" transform="translate(451.675 2453.17)" fill="#2596be"/>
    </g>
    <path id="Path_5639" data-name="Path 5639" d="M12015.244-15318.295a2.246,2.246,0,0,1-2.244-2.243v-64.216a2.247,2.247,0,0,1,2.244-2.245,2.246,2.246,0,0,1,2.243,2.245v64.216A2.245,2.245,0,0,1,12015.244-15318.295Z" transform="translate(-11194.387 18037.949)"/>
    <path id="Path_5640" data-name="Path 5640" d="M12015.244-15336.625a2.249,2.249,0,0,1-2.244-2.248v-45.882a2.247,2.247,0,0,1,2.244-2.244,2.246,2.246,0,0,1,2.243,2.244v45.882A2.248,2.248,0,0,1,12015.244-15336.625Z" transform="translate(-11208.371 18056.281)"/>
    <path id="Path_5641" data-name="Path 5641" d="M12015.244-15353.646a2.249,2.249,0,0,1-2.244-2.248v-28.861a2.247,2.247,0,0,1,2.244-2.244,2.246,2.246,0,0,1,2.243,2.244v28.861A2.248,2.248,0,0,1,12015.244-15353.646Z" transform="translate(-11222.293 18073.301)"/>
    <path id="Subtraction_7" data-name="Subtraction 7" d="M2.244,23.26A2.246,2.246,0,0,1,0,21.017V2.243a2.244,2.244,0,0,1,4.488,0V21.017A2.247,2.247,0,0,1,2.244,23.26Z" transform="translate(775.802 2696.395)"/>
  </g>
</svg>
