<svg xmlns="http://www.w3.org/2000/svg" width="166.534" height="216.596" viewBox="0 0 83.267 108.298">
  <g id="Top_Quality" data-name="Top Quality" transform="translate(-157.557 -388.034)">
    <path id="Path_5619" data-name="Path 5619" d="M199.183,388.034a41.645,41.645,0,1,1-41.626,41.637A41.715,41.715,0,0,1,199.183,388.034Zm37.4,41.668a37.412,37.412,0,1,0-37.5,37.366A37.4,37.4,0,0,0,236.586,429.7Z"/>
    <path id="Path_5620" data-name="Path 5620" d="M237.424,540.565c1.779-2.873,3.413-5.507,5.04-8.145.959-1.555,1.9-3.119,2.861-4.677,1.158-1.887,1.766-2.127,3.829-1.424,4.148,1.413,8.288,2.848,12.432,4.271.516.178,1.039.336,1.805.582-.176-.574-.285-.976-.423-1.367-1.627-4.6-3.279-9.2-4.868-13.815a2.213,2.213,0,0,1,1.719-3.368c1.159-.217,1.8.651,2.164,1.685q2.625,7.421,5.258,14.838a40.717,40.717,0,0,1,1.556,4.525,3.014,3.014,0,0,1-.452,2.446,2.893,2.893,0,0,1-2.459.384c-5.38-1.753-10.725-3.614-16.059-5.5a1.365,1.365,0,0,0-1.964.7c-2.806,4.656-5.687,9.267-8.525,13.9-.6.974-1.227,1.875-2.533,1.75-1.249-.12-1.666-1.1-2.079-2.106-2.344-5.7-4.722-11.385-7.06-17.087a2.08,2.08,0,0,1,1.018-2.987c1.171-.494,2.244,0,2.872,1.336.1.207.178.42.266.632q2.508,6.078,5.016,12.155C236.972,539.626,237.135,539.945,237.424,540.565Z" transform="translate(-28.622 -51.032)"/>
    <path id="Path_5621" data-name="Path 5621" d="M190.289,540.37c1.346-2.939,2.548-5.653,3.842-8.321.3-.614.835-1.385,1.4-1.527a2.634,2.634,0,0,1,2.185.5,2.46,2.46,0,0,1,.432,2.185c-1.774,4.157-3.658,8.269-5.592,12.354-.865,1.826-2.812,1.778-4-.047-2.745-4.212-5.5-8.42-8.159-12.685a1.612,1.612,0,0,0-2.2-.806c-5.567,1.62-11.146,3.2-16.747,4.7a2.794,2.794,0,0,1-2.338-.41c-.495-.534-.391-1.621-.544-2.469a.307.307,0,0,1,.034-.132q3.157-9.99,6.322-19.978c.49-1.538,1.49-2.146,2.745-1.776,1.294.382,1.781,1.514,1.276,3.115q-2.345,7.445-4.72,14.88c-.148.466-.273.94-.467,1.615.553-.1.938-.149,1.307-.251q7.127-1.983,14.25-3.98c1.826-.509,2.38-.3,3.421,1.314C185.209,532.485,187.68,536.323,190.289,540.37Z" transform="translate(-0.412 -50.73)"/>
    <path id="Path_5622" data-name="Path 5622" d="M207.638,456.9a76.132,76.132,0,0,1,11.421-15.943,86.95,86.95,0,0,1,12.77-11.4c1.515-1.109,2.811-1.1,3.609-.013.824,1.126.511,2.233-1.108,3.43a85.369,85.369,0,0,0-14.866,13.954,68,68,0,0,0-9.613,15.105c-.475,1.026-.976,1.99-2.339,1.971s-1.838-.983-2.3-2.021q-4.183-9.461-8.384-18.913c-.185-.418-.376-.834-.541-1.26-.544-1.4-.2-2.538.9-3.058a2.171,2.171,0,0,1,2.977,1.365c1.573,3.5,3.114,7.014,4.671,10.52C205.727,452.629,206.619,454.617,207.638,456.9Z" transform="translate(-15.766 -16.672)" fill="#2596be"/>
  </g>
</svg>
