<svg xmlns="http://www.w3.org/2000/svg" width="180.354" height="180.636" viewBox="0 0 90.177 90.318">
  <g id="Tailored_Solutions" data-name="Tailored Solutions" transform="translate(-253.149 -1940.148)">
    <path id="Subtraction_2" data-name="Subtraction 2" d="M12031.9-15331.835a9.965,9.965,0,0,1-5.646-1.78,9.806,9.806,0,0,1-4.078-5.947,10.594,10.594,0,0,1,1.02-7.342l.108-.229-.255.016c-.3.021-.614.036-.988.051-.651.031-1.237.063-1.8.131a8.293,8.293,0,0,1-1.031.062,7.823,7.823,0,0,1-5.728-2.448,8.029,8.029,0,0,1-2.187-5.921c.284-5.572.444-10.432.49-14.857.027-2.713-.17-5.309-.432-8.42-.317-3.775.727-6.381,3.286-8.2a7.05,7.05,0,0,1,4.116-1.405c.071,0,.145,0,.217,0,2.107.073,4.351.158,6.566.32,1.983.144,4.015.213,6.21.213,4.847,0,9.66-.342,14.576-.723.6-.047,1.2-.106,1.931-.182.642-.068,1.4-.145,2.124-.2.093-.008.181-.011.274-.011a2.173,2.173,0,0,1,2.371,1.988,2.11,2.11,0,0,1-.471,1.683,2.592,2.592,0,0,1-1.7.809c-2.513.3-5.063.546-7.582.741-3.614.286-7.3.425-11.277.425-2.23,0-4.624-.048-7.114-.143-1.021-.041-2.023-.106-3.136-.182-.639-.042-1.382-.091-2.112-.131-.1-.006-.207-.009-.309-.009a3.442,3.442,0,0,0-2.6.989,3.732,3.732,0,0,0-.839,2.886,168.55,168.55,0,0,1,.193,20.89c-.025.526-.062,1.067-.1,1.544l-.023.341c-.048.642-.09,1.289-.124,1.924a3.327,3.327,0,0,0,.885,2.476,3.2,3.2,0,0,0,2.348.98h.055a44.792,44.792,0,0,0,5.137-.3,3.6,3.6,0,0,1,.413-.027,3.638,3.638,0,0,1,3.013,1.738,4.3,4.3,0,0,1,.3,4.14,5.854,5.854,0,0,1-.5.857l-.052.081-.051.081c-.043.068-.086.136-.129.2a5.4,5.4,0,0,0-.769,3.688,5.417,5.417,0,0,0,1.854,3.295,5.4,5.4,0,0,0,3.545,1.316,5.376,5.376,0,0,0,3.418-1.221,5.458,5.458,0,0,0,1.889-3.26,5.31,5.31,0,0,0-.71-3.707,5.913,5.913,0,0,1-1.147-3.461,3.939,3.939,0,0,1,3.7-3.73c.1,0,.193,0,.285.012,2.156.2,4.409.369,6.4.517l.736.055c1.043.075,2.412.175,3.754.278a6.466,6.466,0,0,1,1.132.224,2.15,2.15,0,0,1,1.642,2.418,2.091,2.091,0,0,1-2.044,1.982h-.073c-.922-.032-1.88-.143-2.649-.231-.418-.049-1.044-.119-1.656-.17-1.146-.1-2.293-.176-3.508-.262l-.034,0-.44-.03c-.67-.051-1.3-.1-1.931-.139l-.263-.02.116.235a10.483,10.483,0,0,1,.791,8.323,9.507,9.507,0,0,1-3.43,4.758A10.032,10.032,0,0,1,12031.9-15331.835Z" transform="translate(-11757.578 17328.85)"/>
    <path id="Subtraction_5" data-name="Subtraction 5" d="M12013.835-15331.812c-1.558,0-2.456-.738-2.529-2.078a2.053,2.053,0,0,1,1.719-2.341,35.875,35.875,0,0,1,3.635-.456c6.3-.568,11.135-.822,15.688-.822.962,0,1.911.012,2.823.035l.127,0,.08,0c2.646.068,5.382.139,8.054.434a10.7,10.7,0,0,0,1.187.07,3.963,3.963,0,0,0,3.051-1.035c.723-.775,1-1.969.873-3.754-.319-4.425-.328-9.074-.336-13.176v-.041q0-.475,0-.949c0-.317,0-.634,0-.951-.008-2.2.11-4.441.255-6.929.012-.223.024-.444.037-.667v-.007l.018-.334c.007-.112.013-.225.019-.337a3.8,3.8,0,0,0-.838-2.92,3.421,3.421,0,0,0-2.6-.938c-.1,0-.2,0-.312.008l-.484.021-.5.021c-1.2.044-2.364.1-3.491.251a3.33,3.33,0,0,1-.476.03,3.7,3.7,0,0,1-3.066-1.727,4.333,4.333,0,0,1-.309-4.163,5.239,5.239,0,0,1,.48-.827l0-.008,0-.007c.076-.112.164-.245.243-.375a5.535,5.535,0,0,0,.772-3.7,5.405,5.405,0,0,0-1.822-3.286,5.486,5.486,0,0,0-3.573-1.329,5.4,5.4,0,0,0-3.5,1.29,5.558,5.558,0,0,0-1.9,3.279,5.283,5.283,0,0,0,.765,3.685,5.41,5.41,0,0,1,1.07,3.839,3.645,3.645,0,0,1-3.592,3.3c-.08,0-.157,0-.225-.008-2.72-.156-5.481-.376-8.153-.587l-.081-.007-.212-.017-2.568-.209a6.038,6.038,0,0,1-1.136-.22,2.239,2.239,0,0,1-1.642-2.437,2.169,2.169,0,0,1,2.095-1.967h.064c.8.028,1.623.116,2.415.2l.04,0,.179.02c.434.05,1,.113,1.541.158,1.634.139,3.247.253,4.956.374l.04,0,.125.009.084,0a2.575,2.575,0,0,0,.363-.033l.028,0,.039-.006.034-.006c.063-.01.118-.018.178-.023l.2-.02-.073-.185c-2.288-5.942-1.059-10.376,3.758-13.553a9.158,9.158,0,0,1,5.063-1.487,9.69,9.69,0,0,1,6.1,2.151c4.072,3.313,4.984,7.68,2.711,12.98l-.1.221.243-.012c.23-.015.457-.023.651-.03l.237-.009.056,0a14.994,14.994,0,0,0,1.644-.109,7.979,7.979,0,0,1,1.178-.085,7.741,7.741,0,0,1,5.848,2.584,8.472,8.472,0,0,1,2.013,6.693,119.624,119.624,0,0,0-.348,17.773c.037.965.114,1.944.188,2.892l0,.027.006.078.028.365v.01c.054.7.108,1.428.145,2.14a8.245,8.245,0,0,1-2.136,6.184,8.235,8.235,0,0,1-6.067,2.46c-.314,0-.641-.016-.97-.046-3.605-.338-7.288-.51-10.945-.51-2.689,0-5.384.091-8.007.271-2.08.14-4.19.313-6.35.494-1.706.141-3.146.256-4.4.352C12014.119-15331.816,12013.986-15331.812,12013.835-15331.812Z" transform="translate(-11710.43 17362.279)"/>
    <path id="Subtraction_3" data-name="Subtraction 3" d="M12065.81-15346.865a2.276,2.276,0,0,1-2.294-2.186,161.847,161.847,0,0,1-.846-28.082c.032-.626.077-1.252.127-1.946.013-.188.025-.38.038-.572.021-.3.04-.6.059-.892a3.323,3.323,0,0,0-.838-2.522,3.486,3.486,0,0,0-2.58-1.027l-.092,0-.094,0c-1.154.045-2.332.109-3.472.172l-.133.007-.269.015-.234.013c-2.265.123-4.607.25-6.915.25h-.139c-4.257-.012-8.642-.17-13.4-.483-.112-.007-.211-.011-.3-.011a3.574,3.574,0,0,0-2.75,1.174,3.627,3.627,0,0,0-.8,2.932,23.649,23.649,0,0,1,.167,2.359v.028l.006.153v.074c.023.647.047,1.317.11,1.973a3.193,3.193,0,0,1-.8,2.371,3.994,3.994,0,0,1-2.661,1.418c-.137.009-.27.014-.395.014a5.454,5.454,0,0,1-3.093-.991,5.4,5.4,0,0,0-2.962-.892,5.518,5.518,0,0,0-3.183,1.02,5.166,5.166,0,0,0-1.978,2.784,5.3,5.3,0,0,0,1.885,5.909,5.251,5.251,0,0,0,3.232,1.144,5.333,5.333,0,0,0,2.958-.931,5.539,5.539,0,0,1,3.226-.95c.135,0,.276,0,.409.012a3.712,3.712,0,0,1,2.472,1.348,3.254,3.254,0,0,1,.865,2.41c-.194,2.051-.349,4.142-.5,6.163l0,.035-.013.17c-.116,1.588-.256,3.458-.417,5.3a2.318,2.318,0,0,1-2.29,2.213,2.407,2.407,0,0,1-.336-.023,2.3,2.3,0,0,1-1.843-2.77c.2-2.136.386-4.313.567-6.419l.016-.182c.06-.716.122-1.441.181-2.118q.025-.272.048-.548l.03-.35.023-.267-.239.119a11.737,11.737,0,0,1-5.206,1.36,9.164,9.164,0,0,1-2.971-.5,9.872,9.872,0,0,1-5.048-3.669,10.175,10.175,0,0,1-.139-11.439,9.946,9.946,0,0,1,6.067-4.133,9.7,9.7,0,0,1,2.171-.255,11.425,11.425,0,0,1,5.105,1.321l.228.111-.011-.255-.019-.328-.013-.236q-.019-.33-.035-.645c-.035-.716-.074-1.478-.127-2.235a7.628,7.628,0,0,1,2.031-5.79,8.278,8.278,0,0,1,6.041-2.561c.269,0,.557.015.857.043,3.747.355,7.521.536,11.216.536,2.66,0,5.351-.094,7.994-.277.833-.059,1.7-.107,2.333-.144l.2-.012.153-.009c.585-.035,1.189-.071,1.782-.11.215-.013.4-.02.557-.02a8,8,0,0,1,5.77,2.456,7.7,7.7,0,0,1,2.124,5.728c-.063,1.287-.141,2.742-.235,4.449-.04.682-.077,1.395-.113,2.085l-.028.535v.026a116.084,116.084,0,0,0,.309,15.928l.031.362.07.841.056.674c.167,2.008.339,4.083.5,6.117a2.581,2.581,0,0,1-.529,1.924,2.078,2.078,0,0,1-1.46.7C12065.939-15346.867,12065.873-15346.865,12065.81-15346.865Z" transform="translate(-11724.693 17329.439)" fill="#2596be"/>
    <path id="Subtraction_4" data-name="Subtraction 4" d="M12019.8-15346.877a7.871,7.871,0,0,1-5.674-2.356,7.789,7.789,0,0,1-2.205-5.661c.038-1.668.135-3.338.239-5.044.1-1.587.187-3.14.229-4.682a172.511,172.511,0,0,0-1.07-21.3,2.7,2.7,0,0,1,.557-2.128,2.119,2.119,0,0,1,1.622-.648c.045,0,.1,0,.146,0a2.245,2.245,0,0,1,2.136,2.155c.1,1.3.217,2.62.328,3.893v.015c.3,3.48.617,7.078.679,10.645.072,4.245-.085,8.57-.237,12.753v.038l0,.132c-.047,1.246-.1,2.657-.143,4.032a3.507,3.507,0,0,0,.915,2.584,3.4,3.4,0,0,0,2.5.977c.059,0,.119,0,.178,0,1.136-.044,2.364-.105,3.865-.192,2.455-.14,4.667-.255,6.871-.255h.166c4.365.012,8.837.167,13.668.475.1.007.2.01.3.01a3.56,3.56,0,0,0,2.776-1.191,3.747,3.747,0,0,0,.769-3.039,18.434,18.434,0,0,1-.175-2.422v-.017l0-.1v-.079c-.015-.6-.031-1.226-.091-1.836a3.19,3.19,0,0,1,.8-2.376,4.019,4.019,0,0,1,2.661-1.421c.138-.009.272-.014.4-.014a5.413,5.413,0,0,1,3.089.991,5.414,5.414,0,0,0,2.962.892,5.391,5.391,0,0,0,3.314-1.14,5.25,5.25,0,0,0,1.911-3.085,5.273,5.273,0,0,0-2.162-5.7,5.047,5.047,0,0,0-3.017-1.008,5.454,5.454,0,0,0-3.07.985,5.457,5.457,0,0,1-3.248.945,3.832,3.832,0,0,1-2.707-1.309,3.33,3.33,0,0,1-.932-2.564c.216-2.2.384-4.415.564-6.875l.048-.633c.092-1.225.2-2.647.315-4.032a2.245,2.245,0,0,1,2.278-2.24,2.308,2.308,0,0,1,.29.016c1.333.135,2.069,1.208,1.923,2.8-.181,1.993-.349,3.949-.525,6.02l-.021.251-.024.287-.032.376-.023.276c-.062.739-.125,1.482-.191,2.237l-.02.228.216-.073a17.47,17.47,0,0,1,5.562-1.051,8.932,8.932,0,0,1,7.655,4,10.022,10.022,0,0,1-.132,11.857,9.2,9.2,0,0,1-7.612,3.865,15.26,15.26,0,0,1-5.256-1.054l-.205-.077v.216c0,.291-.007.588-.014.851l0,.092v.026a17.477,17.477,0,0,0,.031,2,7.634,7.634,0,0,1-1.938,5.99,8.567,8.567,0,0,1-6.338,2.692,9.237,9.237,0,0,1-.981-.055,100.707,100.707,0,0,0-10.493-.528c-2.616,0-5.419.095-8.331.281l-1.348.093c-1.1.077-2.267.155-3.375.205C12020.049-15346.881,12019.922-15346.877,12019.8-15346.877Z" transform="translate(-11758.15 17376.783)" fill="#2596be"/>
  </g>
</svg>
